<svg id="Layer_2" data-name="Layer 2" xmlns="http://www.w3.org/2000/svg" viewBox="0 0 631.97 811.85"><defs><style>.cls-1{fill:#6ed35f;}</style></defs><path class="cls-1" d="M2038.12,1584.68c-3.6-2.79-7.19-5.59-10.81-8.37-42.29-32.41-73.22-73.54-94.45-122.3a340.21,340.21,0,0,1-22.26-72.65,328.2,328.2,0,0,1-5.34-75.57c.2-4.45,2.83-7,7.22-7.51a39.51,39.51,0,0,1,5-.1h515.46c1.33,0,2.66,0,4,0,6.11.19,9,3.11,9.15,9.27a352.76,352.76,0,0,1-3.36,60.76c-.65,4.64.61,5,5.07,4.4,30.58-4.35,63.14,10.62,73.45,45.16,6.94,23.25-1.83,42.46-16.5,59.74-17.88,21-41.08,33.06-68.07,37.21-15.18,2.33-30.59,1.75-45.42-3.23-3.13-1-4.69-.37-6.59,2.25a291.73,291.73,0,0,1-66.67,67,45,45,0,0,0-3.81,3.22,11.49,11.49,0,0,0-1.2,2.07c2.84.25,5.18.63,7.53.64q65.23,0,130.49,0c8.25,0,11.7,6.07,7.07,13.27a30.26,30.26,0,0,1-8.43,8.33c-11.95,8.12-25.48,12.92-39.29,16.49-18.44,4.77-37,9.19-55.75,12.61-17.47,3.18-35.16,5.38-52.84,7.09-65.66,6.35-131.53,2.65-197.3,3-24.55.12-49.25-2-73.64-5s-48.51-7.73-72.48-13c-18.76-4.11-37.35-9.5-54.1-19.49a61.63,61.63,0,0,1-8.66-6.67c-3.78-3.28-4.14-7.77-3.79-12.4.22-3,1.66-4.34,4.85-4.29,10.16.13,20.33,0,30.5,0q52,0,104,0c2.19,0,4.37-.41,6.56-.62Zm19.34-49.38.92-1.08a2.87,2.87,0,0,0-.17-1c-.48-.88-1-1.73-1.54-2.56-18.3-27.81-31-58-38.89-90.31a317.3,317.3,0,0,1-9-86.16c.13-4-1.26-5.2-5.12-5.16q-20.23.26-40.48,0c-4.21,0-5.76,1.25-4.87,5.57,3,14.16,4.88,28.58,8.68,42.5,12.69,46.38,35.81,86.88,70.44,120.51C2043.77,1523.86,2050.75,1529.44,2057.46,1535.3Zm363.11-43.6c4.95-.55,9.8-.8,14.53-1.65,24.15-4.36,44.15-15.28,57.37-36.77,10-16.23,6.64-37.88-7.76-48.08-13.87-9.83-29-10.4-44.81-5.61-3.79,1.14-4.46,4-5.39,7-3.06,10-5.47,20.26-9.47,29.87-6.7,16.08-14.39,31.75-21.74,47.55-2,4.2-1.62,5.23,3,5.92S2415.86,1491.12,2420.57,1491.7Z" transform="translate(-1891.69 -836.39)"/><path class="cls-1" d="M2185.91,1266.07a75.43,75.43,0,0,1-43-35c-10.38-17.95-13.89-37.5-12.23-58.13,3-37.08,20.52-66.93,46.26-92.49,13.94-13.84,28.45-27.13,43.08-40.24,24.12-21.59,33.63-49.13,34.05-80.62,0-1.12.11-2.24.23-4.47a68,68,0,0,1,14.88,21.18c14.32,31,11,61-5.68,90.15-11.37,19.82-26.94,36.3-42.42,52.84s-29.66,33.65-39,54.51c-13.49,30-12.17,59.32,2.85,88.29.46.88.89,1.78,1.26,2.7C2186.19,1265.05,2186,1265.39,2185.91,1266.07Z" transform="translate(-1891.69 -836.39)"/><path class="cls-1" d="M2097.09,1169.08a111.17,111.17,0,0,1-13.25-35.3c-6.84-35.94,3-67.71,25.37-95.67,14.67-18.3,30.55-35.65,46.14-53.2,25.45-28.65,35.57-62,30-99.72-2.43-16.48-6.67-32.69-10-48.8,1.94,1.67,4.76,3.77,7.2,6.23,20.49,20.63,32.91,45.21,36.49,74.22,4.25,34.45-5,65.3-26.88,91.57-16.05,19.27-34.3,36.72-51.74,54.82-13.25,13.75-25.44,28.16-32.29,46.36a141.93,141.93,0,0,0-9.12,41.69C2098.66,1156.85,2097.83,1162.38,2097.09,1169.08Z" transform="translate(-1891.69 -836.39)"/></svg>