<svg id="Layer_1" data-name="Layer 1" xmlns="http://www.w3.org/2000/svg" viewBox="0 0 631.97 811.85"><path d="M1288.06,1584.68c-3.61-2.79-7.2-5.59-10.82-8.37-42.29-32.41-73.22-73.54-94.45-122.3a340.78,340.78,0,0,1-22.26-72.65,328.75,328.75,0,0,1-5.33-75.57c.19-4.45,2.83-7,7.21-7.51a39.63,39.63,0,0,1,5-.1h515.45c1.33,0,2.67,0,4,0,6.11.19,9,3.11,9.15,9.27a352.76,352.76,0,0,1-3.36,60.76c-.65,4.64.61,5,5.08,4.4,30.58-4.35,63.13,10.62,73.44,45.16,6.94,23.25-1.82,42.46-16.5,59.74-17.88,21-41.07,33.06-68.07,37.21-15.17,2.33-30.59,1.75-45.42-3.23-3.13-1-4.69-.37-6.58,2.25a292,292,0,0,1-66.68,67,48.4,48.4,0,0,0-3.81,3.22,12.18,12.18,0,0,0-1.2,2.07c2.84.25,5.19.63,7.53.64q65.25,0,130.49,0c8.25,0,11.71,6.07,7.07,13.27a30.22,30.22,0,0,1-8.42,8.33c-12,8.12-25.49,12.92-39.3,16.49-18.44,4.77-37,9.19-55.75,12.61-17.46,3.18-35.15,5.38-52.83,7.09-65.67,6.35-131.53,2.65-197.3,3-24.56.12-49.25-2-73.65-5s-48.51-7.73-72.48-13c-18.75-4.11-37.34-9.5-54.09-19.49a61.06,61.06,0,0,1-8.66-6.67c-3.78-3.28-4.14-7.77-3.8-12.4.23-3,1.67-4.34,4.85-4.29,10.17.13,20.34,0,30.5,0q52,0,104,0c2.19,0,4.38-.41,6.57-.62Zm19.33-49.38.92-1.08a3.15,3.15,0,0,0-.16-1c-.48-.88-1-1.73-1.55-2.56-18.3-27.81-31-58-38.89-90.31a317.3,317.3,0,0,1-9-86.16c.13-4-1.26-5.2-5.13-5.16q-20.23.26-40.47,0c-4.21,0-5.77,1.25-4.87,5.57,2.94,14.16,4.87,28.58,8.68,42.5,12.68,46.38,35.81,86.88,70.43,120.51C1293.7,1523.86,1300.69,1529.44,1307.39,1535.3Zm363.12-43.6c5-.55,9.79-.8,14.52-1.65,24.16-4.36,44.15-15.28,57.38-36.77,10-16.23,6.63-37.88-7.77-48.08-13.87-9.83-29-10.4-44.81-5.61-3.79,1.14-4.46,4-5.39,7-3.06,10-5.47,20.26-9.47,29.87-6.69,16.08-14.38,31.75-21.74,47.55-2,4.2-1.62,5.23,3,5.92S1665.8,1491.12,1670.51,1491.7Z" transform="translate(-1141.62 -836.39)"/><path d="M1435.85,1266.07a75.4,75.4,0,0,1-43-35c-10.38-17.95-13.89-37.5-12.23-58.13,3-37.08,20.51-66.93,46.26-92.49,13.94-13.84,28.44-27.13,43.08-40.24,24.11-21.59,33.63-49.13,34-80.62,0-1.12.11-2.24.23-4.47a68,68,0,0,1,14.89,21.18c14.32,31,11,61-5.68,90.15-11.37,19.82-27,36.3-42.42,52.84s-29.67,33.65-39,54.51c-13.49,30-12.17,59.32,2.86,88.29.45.88.88,1.78,1.25,2.7C1436.13,1265.05,1436,1265.39,1435.85,1266.07Z" transform="translate(-1141.62 -836.39)"/><path d="M1347,1169.08a111.2,111.2,0,0,1-13.26-35.3c-6.83-35.94,3-67.71,25.38-95.67,14.66-18.3,30.54-35.65,46.13-53.2,25.45-28.65,35.58-62,30-99.72-2.42-16.48-6.66-32.69-10-48.8,2,1.67,4.76,3.77,7.21,6.23,20.48,20.63,32.9,45.21,36.48,74.22,4.26,34.45-5,65.3-26.87,91.57-16.06,19.27-34.3,36.72-51.74,54.82-13.26,13.75-25.45,28.16-32.3,46.36a141.93,141.93,0,0,0-9.12,41.69C1348.6,1156.85,1347.76,1162.38,1347,1169.08Z" transform="translate(-1141.62 -836.39)"/></svg>