<svg width="24" height="24" xmlns="http://www.w3.org/2000/svg" viewBox="0 0 24 23.41"><defs><style>.cls-1{fill:#fff;}</style></defs><path class="cls-1" d="M12,0A12,12,0,0,0,8.21,23.39c.6.11.79-.26.79-.58V20.58c-3.34.72-4-1.42-4-1.42A3.19,3.19,0,0,0,3.63,17.4c-1.08-.74.09-.73.09-.73a2.55,2.55,0,0,1,1.84,1.24,2.54,2.54,0,0,0,3.49,1,2.59,2.59,0,0,1,.76-1.61C7.15,17,4.34,16,4.34,11.37A4.63,4.63,0,0,1,5.58,8.15,4.28,4.28,0,0,1,5.7,5s1-.33,3.3,1.23a11.49,11.49,0,0,1,3-.41,11.63,11.63,0,0,1,3,.41C17.3,4.65,18.3,5,18.3,5a4.23,4.23,0,0,1,.12,3.17,4.63,4.63,0,0,1,1.24,3.22c0,4.61-2.81,5.63-5.48,5.92A2.9,2.9,0,0,1,15,19.52v3.29c0,.32.19.69.8.58A12,12,0,0,0,12,0Z" transform="translate(0 0)"/></svg>